<svg xmlns="http://www.w3.org/2000/svg" width="500" height="500" viewBox="0 0 500 500"><g transform="translate(25.60784867180968,280.14751821943963)translate(224.03955078125,30.5)rotate(0)translate(-224.03955078125,-30.5)" opacity="1"><path transform="translate(6,36.447265625)rotate(0)" d="M0.47 0L16.96-35.11L24.50-35.11L41.49 0L34.01 0L31.20-5.91L10.69-5.91L7.97 0L0.47 0ZM13.41-11.77L28.39-11.77L20.80-27.72L13.41-11.77ZM46.94 0L46.94-35.11L54.06-35.11L54.06-6.24L74.48-6.24L74.48 0L46.94 0ZM81.38 0L81.38-35.11L99.88-35.11L99.88-35.11Q103.93-35.11 106.89-34.23L106.89-34.23L106.89-34.23Q109.86-33.35 111.81-31.70L111.81-31.70L111.81-31.70Q113.76-30.05 114.72-27.67L114.72-27.67L114.72-27.67Q115.67-25.29 115.67-22.30L115.67-22.30L115.67-22.30Q115.67-19.50 114.73-17.12L114.73-17.12L114.73-17.12Q113.79-14.73 111.84-12.99L111.84-12.99L111.84-12.99Q109.90-11.25 106.94-10.28L106.94-10.28L106.94-10.28Q103.97-9.30 99.93-9.30L99.93-9.30L88.50-9.32L88.50 0L81.38 0ZM88.50-15.48L100.06-15.48L100.06-15.48Q102.08-15.48 103.60-15.96L103.60-15.96L103.60-15.96Q105.12-16.44 106.14-17.33L106.14-17.33L106.14-17.33Q107.16-18.22 107.67-19.48L107.67-19.48L107.67-19.48Q108.17-20.75 108.17-22.30L108.17-22.30L108.17-22.30Q108.17-25.43 106.14-27.17L106.14-27.17L106.14-27.17Q104.11-28.91 100.06-28.91L100.06-28.91L88.50-28.91L88.50-15.48ZM123.42 0L123.42-35.11L130.54-35.11L130.54-25.94L152.38-25.94L152.38-35.11L159.52-35.11L159.52 0L152.38 0L152.38-19.86L130.54-19.86L130.54 0L123.42 0ZM164.98 0L181.46-35.11L189.01-35.11L205.99 0L198.51 0L195.70-5.91L175.20-5.91L172.48 0L164.98 0ZM177.91-11.77L192.89-11.77L185.30-27.72L177.91-11.77ZM226.72 0L226.72-35.11L245.23-35.11L245.23-35.11Q249.27-35.11 252.24-34.23L252.24-34.23L252.24-34.23Q255.20-33.35 257.16-31.70L257.16-31.70L257.16-31.70Q259.11-30.05 260.06-27.67L260.06-27.67L260.06-27.67Q261.02-25.29 261.02-22.30L261.02-22.30L261.02-22.30Q261.02-19.50 260.08-17.12L260.08-17.12L260.08-17.12Q259.13-14.73 257.19-12.99L257.19-12.99L257.19-12.99Q255.25-11.25 252.28-10.28L252.28-10.28L252.28-10.28Q249.32-9.30 245.27-9.30L245.27-9.30L233.84-9.32L233.84 0L226.72 0ZM233.84-15.48L245.41-15.48L245.41-15.48Q247.43-15.48 248.95-15.96L248.95-15.96L248.95-15.96Q250.46-16.44 251.48-17.33L251.48-17.33L251.48-17.33Q252.51-18.22 253.01-19.48L253.01-19.48L253.01-19.48Q253.52-20.75 253.52-22.30L253.52-22.30L253.52-22.30Q253.52-25.43 251.48-27.17L251.48-27.17L251.48-27.17Q249.45-28.91 245.41-28.91L245.41-28.91L233.84-28.91L233.84-15.48ZM268.77 0L268.77-35.11L275.89-35.11L275.89-25.94L297.72-25.94L297.72-35.11L304.86-35.11L304.86 0L297.72 0L297.72-19.86L275.89-19.86L275.89 0L268.77 0ZM310.32 0L326.81-35.11L334.35-35.11L351.33 0L343.85 0L341.05-5.91L320.54-5.91L317.82 0L310.32 0ZM323.26-11.77L338.24-11.77L330.65-27.72L323.26-11.77ZM354.64-4.67L358.43-10.44L358.43-10.44Q360.34-9.37 362.31-8.50L362.31-8.50L362.31-8.50Q364.27-7.64 366.38-7.04L366.38-7.04L366.38-7.04Q368.49-6.45 370.82-6.13L370.82-6.13L370.82-6.13Q373.14-5.82 375.77-5.82L375.77-5.82L375.77-5.82Q378.94-5.82 381.16-6.23L381.16-6.23L381.16-6.23Q383.39-6.65 384.79-7.38L384.79-7.38L384.79-7.38Q386.19-8.11 386.83-9.12L386.83-9.12L386.83-9.12Q387.47-10.13 387.47-11.32L387.47-11.32L387.47-11.32Q387.47-13.23 385.88-14.34L385.88-14.34L385.88-14.34Q384.28-15.45 380.96-15.45L380.96-15.45L380.96-15.45Q379.50-15.45 377.88-15.26L377.88-15.26L377.88-15.26Q376.27-15.07 374.61-14.85L374.61-14.85L374.61-14.85Q372.96-14.62 371.36-14.43L371.36-14.43L371.36-14.43Q369.75-14.24 368.34-14.24L368.34-14.24L368.34-14.24Q365.98-14.24 363.81-14.85L363.81-14.85L363.81-14.85Q361.64-15.45 359.97-16.67L359.97-16.67L359.97-16.67Q358.30-17.88 357.31-19.70L357.31-19.70L357.31-19.70Q356.32-21.52 356.32-23.94L356.32-23.94L356.32-23.94Q356.32-25.38 356.71-26.80L356.71-26.80L356.71-26.80Q357.11-28.21 357.97-29.50L357.97-29.50L357.97-29.50Q358.84-30.79 360.21-31.91L360.21-31.91L360.21-31.91Q361.58-33.02 363.52-33.83L363.52-33.83L363.52-33.83Q365.46-34.63 368.01-35.10L368.01-35.10L368.01-35.10Q370.56-35.56 373.82-35.56L373.82-35.56L373.82-35.56Q376.18-35.56 378.56-35.30L378.56-35.30L378.56-35.30Q380.94-35.04 383.19-34.57L383.19-34.57L383.19-34.57Q385.45-34.10 387.54-33.43L387.54-33.43L387.54-33.43Q389.63-32.77 391.43-31.96L391.43-31.96L388.30-26.21L388.30-26.21Q386.82-26.86 385.12-27.41L385.12-27.41L385.12-27.41Q383.41-27.96 381.54-28.37L381.54-28.37L381.54-28.37Q379.68-28.77 377.69-29.01L377.69-29.01L377.69-29.01Q375.70-29.24 373.64-29.24L373.64-29.24L373.64-29.24Q370.70-29.24 368.80-28.82L368.80-28.82L368.80-28.82Q366.90-28.39 365.78-27.73L365.78-27.73L365.78-27.73Q364.65-27.07 364.22-26.25L364.22-26.25L364.22-26.25Q363.78-25.43 363.78-24.62L363.78-24.62L363.78-24.62Q363.78-23.04 365.19-22.05L365.19-22.05L365.19-22.05Q366.61-21.05 369.50-21.05L369.50-21.05L369.50-21.05Q370.67-21.05 372.19-21.21L372.19-21.21L372.19-21.21Q373.71-21.38 375.38-21.58L375.38-21.58L375.38-21.58Q377.05-21.79 378.79-21.96L378.79-21.96L378.79-21.96Q380.53-22.12 382.17-22.12L382.17-22.12L382.17-22.12Q385.27-22.12 387.66-21.43L387.66-21.43L387.66-21.43Q390.06-20.73 391.67-19.44L391.67-19.44L391.67-19.44Q393.29-18.15 394.12-16.32L394.12-16.32L394.12-16.32Q394.95-14.49 394.95-12.22L394.95-12.22L394.95-12.22Q394.95-9.19 393.55-6.82L393.55-6.82L393.55-6.82Q392.15-4.45 389.55-2.82L389.55-2.82L389.55-2.82Q386.96-1.19 383.30-0.35L383.30-0.35L383.30-0.35Q379.63 0.49 375.14 0.49L375.14 0.49L375.14 0.49Q372.18 0.49 369.35 0.12L369.35 0.12L369.35 0.12Q366.52-0.25 363.92-0.93L363.92-0.93L363.92-0.93Q361.33-1.62 358.98-2.57L358.98-2.57L358.98-2.57Q356.63-3.53 354.64-4.67L354.64-4.67ZM402.79 0L402.79-35.11L432.69-35.11L432.69-28.86L409.91-28.86L409.91-21.85L430.08-21.85L430.08-15.99L409.91-15.99L409.91-6.22L433.16-6.22L433.16 0L402.79 0Z" fill="#00154f"/></g><g transform="translate(139.20736496819652,345.40617017604137)translate(110.94003448486326,23.1953125)rotate(0)translate(-110.94003448486326,-23.1953125)" opacity="1"><path transform="translate(6,29.44)rotate(0)" d="M20.88-25.56L23.36-25.56L23.36 0L20.88 0L20.88-11.95L5.72-11.95L5.72 0L3.20 0L3.20-25.56L5.72-25.56L5.72-14.18L20.88-14.18L20.88-25.56ZM43.67 0.18L43.67 0.18L43.67 0.18Q41.00 0.18 38.79-0.92L38.79-0.92L38.79-0.92Q36.58-2.02 34.99-3.83L34.99-3.83L34.99-3.83Q33.41-5.65 32.54-7.99L32.54-7.99L32.54-7.99Q31.68-10.33 31.68-12.78L31.68-12.78L31.68-12.78Q31.68-15.34 32.60-17.68L32.60-17.68L32.60-17.68Q33.52-20.02 35.14-21.82L35.14-21.82L35.14-21.82Q36.76-23.62 38.95-24.68L38.95-24.68L38.95-24.68Q41.15-25.74 43.70-25.74L43.70-25.74L43.70-25.74Q46.37-25.74 48.58-24.61L48.58-24.61L48.58-24.61Q50.80-23.47 52.36-21.64L52.36-21.64L52.36-21.64Q53.93-19.80 54.79-17.48L54.79-17.48L54.79-17.48Q55.66-15.16 55.66-12.74L55.66-12.74L55.66-12.74Q55.66-10.19 54.74-7.85L54.74-7.85L54.74-7.85Q53.82-5.51 52.22-3.73L52.22-3.73L52.22-3.73Q50.62-1.94 48.42-0.88L48.42-0.88L48.42-0.88Q46.22 0.18 43.67 0.18ZM34.20-12.78L34.20-12.78L34.20-12.78Q34.20-10.69 34.88-8.77L34.88-8.77L34.88-8.77Q35.57-6.84 36.83-5.35L36.83-5.35L36.83-5.35Q38.09-3.85 39.82-2.97L39.82-2.97L39.82-2.97Q41.54-2.09 43.67-2.09L43.67-2.09L43.67-2.09Q45.83-2.09 47.59-3.02L47.59-3.02L47.59-3.02Q49.36-3.96 50.58-5.47L50.58-5.47L50.58-5.47Q51.80-6.98 52.47-8.89L52.47-8.89L52.47-8.89Q53.14-10.80 53.14-12.78L53.14-12.78L53.14-12.78Q53.14-14.87 52.43-16.79L52.43-16.79L52.43-16.79Q51.73-18.72 50.47-20.20L50.47-20.20L50.47-20.20Q49.21-21.67 47.48-22.55L47.48-22.55L47.48-22.55Q45.76-23.44 43.67-23.44L43.67-23.44L43.67-23.44Q41.51-23.44 39.74-22.52L39.74-22.52L39.74-22.52Q37.98-21.60 36.76-20.09L36.76-20.09L36.76-20.09Q35.53-18.58 34.87-16.67L34.87-16.67L34.87-16.67Q34.20-14.76 34.20-12.78ZM81.29 0L64.01 0L64.01-25.56L66.53-25.56L66.53-2.23L81.29-2.23L81.29 0ZM97.27 0L88.60 0L88.60-25.56L97.27-25.56L97.27-25.56Q100.33-25.56 102.62-24.55L102.62-24.55L102.62-24.55Q104.90-23.54 106.43-21.82L106.43-21.82L106.43-21.82Q107.96-20.09 108.74-17.77L108.74-17.77L108.74-17.77Q109.51-15.44 109.51-12.82L109.51-12.82L109.51-12.82Q109.51-9.90 108.65-7.54L108.65-7.54L108.65-7.54Q107.78-5.18 106.18-3.51L106.18-3.51L106.18-3.51Q104.58-1.84 102.33-0.92L102.33-0.92L102.33-0.92Q100.08 0 97.27 0L97.27 0ZM106.99-12.82L106.99-12.82L106.99-12.82Q106.99-15.12 106.34-17.05L106.34-17.05L106.34-17.05Q105.70-18.97 104.45-20.38L104.45-20.38L104.45-20.38Q103.21-21.78 101.41-22.55L101.41-22.55L101.41-22.55Q99.61-23.33 97.27-23.33L97.27-23.33L91.12-23.33L91.12-2.23L97.27-2.23L97.27-2.23Q99.65-2.23 101.47-3.04L101.47-3.04L101.47-3.04Q103.28-3.85 104.51-5.27L104.51-5.27L104.51-5.27Q105.73-6.70 106.36-8.62L106.36-8.62L106.36-8.62Q106.99-10.55 106.99-12.82ZM120.46 0L117.94 0L117.94-25.56L120.46-25.56L120.46 0ZM149.65 0L132.98-20.88L132.98 0L130.46 0L130.46-25.56L132.41-25.56L149.33-4.28L149.33-25.52L151.85-25.52L151.85 0L149.65 0ZM180.32 0L180.32-3.74L180.32-3.74Q176.76 0.18 172.12 0.18L172.12 0.18L172.12 0.18Q169.52 0.18 167.35-0.94L167.35-0.94L167.35-0.94Q165.17-2.05 163.57-3.89L163.57-3.89L163.57-3.89Q161.96-5.72 161.06-8.05L161.06-8.05L161.06-8.05Q160.16-10.37 160.16-12.82L160.16-12.82L160.16-12.82Q160.16-15.37 161.05-17.71L161.05-17.71L161.05-17.71Q161.93-20.05 163.51-21.83L163.51-21.83L163.51-21.83Q165.10-23.62 167.26-24.68L167.26-24.68L167.26-24.68Q169.42-25.74 171.97-25.74L171.97-25.74L171.97-25.74Q173.84-25.74 175.39-25.33L175.39-25.33L175.39-25.33Q176.94-24.91 178.15-24.17L178.15-24.17L178.15-24.17Q179.35-23.44 180.23-22.41L180.23-22.41L180.23-22.41Q181.12-21.38 181.73-20.16L181.73-20.16L179.78-18.86L179.78-18.86Q178.52-21.24 176.51-22.36L176.51-22.36L176.51-22.36Q174.49-23.47 171.94-23.47L171.94-23.47L171.94-23.47Q169.81-23.47 168.10-22.57L168.10-22.57L168.10-22.57Q166.39-21.67 165.19-20.18L165.19-20.18L165.19-20.18Q163.98-18.68 163.33-16.76L163.33-16.76L163.33-16.76Q162.68-14.83 162.68-12.78L162.68-12.78L162.68-12.78Q162.68-10.62 163.42-8.68L163.42-8.68L163.42-8.68Q164.16-6.73 165.46-5.27L165.46-5.27L165.46-5.27Q166.75-3.82 168.50-2.95L168.50-2.95L168.50-2.95Q170.24-2.09 172.30-2.09L172.30-2.09L172.30-2.09Q174.49-2.09 176.49-3.11L176.49-3.11L176.49-3.11Q178.49-4.14 180.32-6.37L180.32-6.37L180.32-10.62L174.64-10.62L174.64-12.56L182.45-12.56L182.45 0L180.32 0ZM207.40-22.79L206.17-20.77L206.17-20.77Q205.09-22.00 203.29-22.75L203.29-22.75L203.29-22.75Q201.49-23.51 199.19-23.51L199.19-23.51L199.19-23.51Q195.80-23.51 194.26-22.23L194.26-22.23L194.26-22.23Q192.71-20.95 192.71-18.76L192.71-18.76L192.71-18.76Q192.71-17.60 193.12-16.87L193.12-16.87L193.12-16.87Q193.54-16.13 194.40-15.59L194.40-15.59L194.40-15.59Q195.26-15.05 196.61-14.65L196.61-14.65L196.61-14.65Q197.96-14.26 199.80-13.86L199.80-13.86L199.80-13.86Q201.85-13.43 203.49-12.89L203.49-12.89L203.49-12.89Q205.13-12.35 206.28-11.54L206.28-11.54L206.28-11.54Q207.43-10.73 208.04-9.58L208.04-9.58L208.04-9.58Q208.66-8.42 208.66-6.70L208.66-6.70L208.66-6.70Q208.66-4.93 207.97-3.64L207.97-3.64L207.97-3.64Q207.29-2.34 206.06-1.48L206.06-1.48L206.06-1.48Q204.84-0.61 203.15-0.20L203.15-0.20L203.15-0.20Q201.46 0.22 199.44 0.22L199.44 0.22L199.44 0.22Q193.50 0.22 189.18-3.49L189.18-3.49L190.44-5.54L190.44-5.54Q191.12-4.82 192.08-4.18L192.08-4.18L192.08-4.18Q193.03-3.53 194.20-3.04L194.20-3.04L194.20-3.04Q195.37-2.56 196.70-2.29L196.70-2.29L196.70-2.29Q198.04-2.02 199.51-2.02L199.51-2.02L199.51-2.02Q202.57-2.02 204.28-3.11L204.28-3.11L204.28-3.11Q205.99-4.21 205.99-6.44L205.99-6.44L205.99-6.44Q205.99-7.63 205.51-8.44L205.51-8.44L205.51-8.44Q205.02-9.25 204.05-9.85L204.05-9.85L204.05-9.85Q203.08-10.44 201.64-10.87L201.64-10.87L201.64-10.87Q200.20-11.30 198.29-11.74L198.29-11.74L198.29-11.74Q196.27-12.20 194.76-12.71L194.76-12.71L194.76-12.71Q193.25-13.21 192.20-13.97L192.20-13.97L192.20-13.97Q191.16-14.72 190.64-15.79L190.64-15.79L190.64-15.79Q190.12-16.85 190.12-18.40L190.12-18.40L190.12-18.40Q190.12-20.16 190.78-21.55L190.78-21.55L190.78-21.55Q191.45-22.93 192.67-23.85L192.67-23.85L192.67-23.85Q193.90-24.77 195.55-25.25L195.55-25.25L195.55-25.25Q197.21-25.74 199.22-25.74L199.22-25.74L199.22-25.74Q201.78-25.74 203.78-24.97L203.78-24.97L203.78-24.97Q205.78-24.19 207.40-22.79L207.40-22.79Z" fill="#00154f"/></g><g transform="translate(150.5,126.9771422187203)translate(61.058234123170095,54.60492482559928)rotate(0)translate(-61.058234123170095,-54.60492482559928) scale(0.9928006719105397,0.9928006719105397)" opacity="1"><defs class="defs"/><polygon fill="#00154f" points="92.369,110.121 123.002,110.121 76.818,0 47.285,0 0,110.121 76.984,110.121 68.512,88.129 &#10;&#9;38.176,88.129 61.266,29.377 " class="color c1"/></g><g transform="translate(256.42208381235355,127.08434817171513)translate(46.78895809382325,53.83245716171055)rotate(0)translate(-46.78895809382325,-53.83245716171055) scale(1.009666560795478,1.009666560795478)" opacity="1"><defs class="defs"/><path fill="#00154f" d="M81.058,10.131C73.306,3.377,62.415,0,48.383,0H0v38.723l28.745,68.545V79.643h19.638&#10;&#9;c14.032,0,24.923-3.584,32.675-10.758c7.748-7.172,11.624-17.254,11.624-30.238C92.682,26.391,88.806,16.887,81.058,10.131z&#10;&#9; M60.556,52.313c-3.196,2.932-7.725,4.396-13.587,4.396H28.745V22.936h18.224c5.862,0,10.391,1.441,13.587,4.318&#10;&#9;c3.193,2.883,4.792,6.99,4.792,12.332C65.348,45.139,63.749,49.381,60.556,52.313z" class="color c1"/></g></svg>